:SAMPLES-PER-SECOND 30
:FRAME-RANGE 1-1700
:FULLY-SPECIFIED
:DEGREES
1063
root  72.0625 39.5937 -11.1708 2.20288 27.3008 -0.157043
RightUpLeg  -33.7422 -7.33727 4.47851
RightLeg  34.2048 -8.30133 -6.26325
RightFoot  -0.810394 -0.977214 10.5154
RightToes  -1.16417e-010 0 -3.6325e-017
Spine  9.93209 -2.28594 -4.36327
Spine1  1.531 -2.54279 0.584496
HEad  9.00148 -4.19811 5.14025
LeftShoulder1  1.32285 -0.108741 -30.5567
LeftArm  1.41112 28.9291 -43.15
LeftForeArm  25.0215 -47.4313 -10.373
LeftHand  0.320069 -1.34147 -5.41739
RightShoulder  0.685075 -1.95204 38.7658
RightArm  36.9989 -19.6949 8.89539
RightForeArm  19.0191 1.8961 18.6316
RightHand  0.528662 1.96604 8.17426
LeftUpLeg  2.74939 9.295 2.16126
LeftLeg  7.18115 5.35624 -2.04362
LeftFoot  -12.344 0.0278365 -5.26561
LeftToes  1.03528e-008 1.55373e-010 -2.26046e-010
1064
root  72.7297 39.3642 -10.2545 2.69974 27.9379 1.08934
RightUpLeg  -31.1581 -11.2309 5.84492
RightLeg  18.746 -9.14216 -3.63895
RightFoot  -0.185838 -1.07926 11.0066
RightToes  -1.16417e-010 0 -3.6325e-017
Spine  9.42271 -3.11785 -5.94911
Spine1  1.70609 -3.69882 1.86774
HEad  7.68434 -4.90068 5.73708
LeftShoulder1  1.35494 -0.180617 -30.716
LeftArm  5.41329 28.1039 -43.3272
LeftForeArm  25.1615 -48.5781 -10.8312
LeftHand  0.334784 -1.19329 -5.81543
RightShoulder  -0.222369 -3.98865 37.0084
RightArm  35.1025 -21.3372 7.23169
RightForeArm  20.4469 1.35904 18.5949
RightHand  0.512526 2.0681 7.80265
LeftUpLeg  4.51834 9.21249 1.19589
LeftLeg  7.61935 4.77433 -2.36759
LeftFoot  -14.1553 -0.037098 -4.96037
LeftToes  1.03528e-008 1.55373e-010 -2.26046e-010
1065
root  73.4066 39.0572 -9.23226 2.65399 28.0353 2.63141
RightUpLeg  -26.638 -6.16774 1.41998
RightLeg  5.29663 -19.0152 1.49111
RightFoot  -0.893599 -0.87649 9.49898
RightToes  -1.16417e-010 0 -3.6325e-017
Spine  9.06005 -3.65475 -6.82826
Spine1  2.44913 -4.36897 1.83789
HEad  6.75841 -5.80457 6.64911
LeftShoulder1  1.40832 -0.325325 -30.7222
LeftArm  11.2545 24.767 -42.2824
LeftForeArm  25.0535 -48.7438 -10.9091
LeftHand  0.361102 -1.11792 -6.36163
RightShoulder  -0.839716 -5.42082 36.8886
RightArm  21.9751 -21.075 5.63767
RightForeArm  32.2351 -2.06109 17.8188
RightHand  0.452337 1.90434 7.03818
LeftUpLeg  7.47194 9.2879 0.25415
LeftLeg  7.76432 4.3594 -2.82823
LeftFoot  -16.1686 -0.10962 -4.89638
LeftToes  1.03528e-008 1.55373e-010 -2.26046e-010
1066
root  74.1759 38.6392 -8.03845 2.12192 26.7113 3.6257
RightUpLeg  -24.115 -2.35564 -0.577877
RightLeg  -0.731476 -23.0143 4.96124
RightFoot  -0.39934 -0.905496 9.40527
RightToes  -1.16417e-010 0 -3.6325e-017
Spine  8.43016 -3.76281 -5.82079
Spine1  2.77509 -4.09352 0.316865
HEad  6.61791 -6.70144 6.66587
LeftShoulder1  1.44635 -0.394248 -31.0513
LeftArm  16.2147 20.5994 -40.7805
LeftForeArm  25.3551 -49.2287 -11.0927
LeftHand  0.446987 -1.26895 -7.70003
RightShoulder  -1.13938 -6.09978 37.1187
RightArm  6.02831 -20.9984 4.58045
RightForeArm  44.8952 -5.71678 15.7585
RightHand  0.351335 1.4013 5.88656
LeftUpLeg  11.249 9.91789 -0.135274
LeftLeg  7.77644 4.55453 -3.40568
LeftFoot  -18.5115 -0.201025 -4.9766
LeftToes  1.03528e-008 1.55373e-010 -2.26046e-010
1067
root  74.9482 38.2529 -6.75312 1.57806 25.2848 3.86761
RightUpLeg  -22.8074 -1.7156 0.244434
RightLeg  -0.0208347 -22.6911 4.50972
RightFoot  -0.284208 -0.868058 8.93063
RightToes  -1.16417e-010 0 -3.6325e-017
Spine  7.94116 -3.69514 -4.62196
Spine1  2.51354 -3.94513 -0.0132382
HEad  6.99954 -6.99493 5.40719
LeftShoulder1  1.43209 -0.317157 -31.4278
LeftArm  18.1627 17.1964 -40.2725
LeftForeArm  25.3789 -50.0193 -11.4376
LeftHand  0.48681 -1.10802 -8.62008
RightShoulder  -0.961102 -5.67706 37.3545
RightArm  -0.339039 -21.4276 4.22247
RightForeArm  46.7636 -6.82244 14.6244
RightHand  0.291603 1.14054 5.08701
LeftUpLeg  14.7787 10.3103 -0.139409
LeftLeg  7.66277 4.96211 -3.46199
LeftFoot  -20.5615 -0.365003 -6.05057
LeftToes  1.03528e-008 1.55373e-010 -2.26046e-010
1068
root  75.69 37.9992 -5.3687 1.41937 24.8374 3.54774
RightUpLeg  -22.3151 -3.99694 2.52767
RightLeg  5.1033 -22.2731 1.84233
RightFoot  0.453917 -0.749065 7.27152
RightToes  -1.16417e-010 0 -3.6325e-017
Spine  7.23784 -3.96162 -3.83175
Spine1  2.21173 -4.55589 1.24925
HEad  6.55497 -6.87283 3.83405
LeftShoulder1  1.37305 -0.170229 -31.3173
LeftArm  17.0611 15.1381 -41.0765
LeftForeArm  25.5092 -50.7323 -11.751
LeftHand  0.482481 -1.01487 -8.67771
RightShoulder  -0.939044 -5.60435 37.7901
RightArm  0.304833 -20.4339 4.69723
RightForeArm  44.0577 -6.70645 14.9531
RightHand  0.305816 1.284 5.2102
LeftUpLeg  17.6136 10.4865 0.503528
LeftLeg  7.50657 4.58732 -3.28582
LeftFoot  -21.416 -0.576188 -7.98238
LeftToes  1.03528e-008 1.55373e-010 -2.26046e-010
